<svg xmlns="http://www.w3.org/2000/svg" width="368.149" height="292.422" viewBox="0 0 368.149 292.422">
    <defs>
        <clipPath id="clip-path">
            <path id="Mask" d="M0 0v15.995l6.943-4.2z" class="cls-1" transform="translate(0)"/>
        </clipPath>
        <clipPath id="clip-path-2">
            <path id="Mask-2" d="M6.943 0v15.995L0 11.794z" class="cls-2" transform="translate(6.943 15.995) rotate(180)"/>
        </clipPath>
        <style>
            .cls-1{fill:#7681c7}.cls-2{fill:#9ba3d7}.cls-3{fill:#fff}.cls-5{fill:#4278de}.cls-8{opacity:.259}.cls-16{fill:none;stroke:#014ba2;stroke-linecap:round;stroke-linejoin:round;stroke-width:4px}
        </style>
    </defs>
    <g id="img2" transform="translate(-776 -288)">
        <path id="Path_8040" d="M0 0h368.149v292.422H0z" class="cls-3" transform="translate(776 288)"/>
        <g id="Component_187_3" transform="translate(815 318.001)">
            <g id="Group_8306" opacity="0.49" transform="translate(0 -0.001)">
                <path id="Path_8031" d="M792.514 654.214q-30.654.421-61.312.836a4.371 4.371 0 0 1 0-8.7q30.657.421 61.312.836a3.535 3.535 0 1 1 0 7.026z" class="cls-5" transform="translate(-726.184 -566.432)"/>
                <path id="Path_8032" d="M793.187 720.367q-27.973 4.175-55.95 8.347c-5.724.891-10.38-3.632-10.38-10.079v-74.558c0-6.447 4.657-10.97 10.38-10.079l55.95 8.347a4.484 4.484 0 0 1 3.931 4.044c0 1.905-1.761 3.239-3.931 2.98l-55.95-6.843a2.288 2.288 0 0 0-2.518 2.445v72.77a2.287 2.287 0 0 0 2.518 2.445q27.977-3.42 55.95-6.843c2.17-.259 3.931 1.075 3.931 2.98a4.484 4.484 0 0 1-3.931 4.044z" class="cls-5" transform="translate(-726.856 -586.635)"/>
                <path id="Path_8033" d="M783.4 677.5q-22.851 3.554-45.7 8.742a3.833 3.833 0 0 1-4.549-3.42 4.378 4.378 0 0 1 3.2-5.092q22.85-4.422 45.7-7.207a4.084 4.084 0 0 1 4.549 2.977 3.531 3.531 0 0 1-3.2 4z" class="cls-5" transform="translate(-716.741 -527.313)"/>
                <path id="Path_8034" d="M775.164 683.55q-16.022 3.494-32.04 8.5a3.733 3.733 0 0 1-4.749-3.014 4.45 4.45 0 0 1 2.888-5.317q16.018-4.308 32.04-7.112a4.2 4.2 0 0 1 4.749 2.765 3.468 3.468 0 0 1-2.888 4.178z" class="cls-5" transform="translate(-708.369 -517.504)"/>
                <path id="Path_8038" d="M869.7 833.4q-40.626 7.477-81.25 14.951c-16.625 3.221-30.148-9.439-30.148-28.216V644.576c0-18.78 13.522-31.44 30.148-28.219l81.25 14.951c16.625 3.218 30.148 17.608 30.148 32.077v10.339q-7.862-.885-15.724-1.774V661.3c0-7.176-6.47-14.06-14.424-15.347q-40.626-6.392-81.25-12.786c-7.954-1.287-14.424 4.767-14.424 13.5V818.04c0 8.735 6.47 14.791 14.424 13.5l81.25-12.784c7.954-1.287 14.424-8.174 14.424-15.349v-14.685l15.724-1.659v14.257c.001 14.471-13.518 28.859-30.148 32.08z" class="cls-5" transform="translate(-675.886 -615.855)"/>
            </g>
            <ellipse id="Ellipse_587" cx="22.275" cy="22.276" opacity="0.132" rx="22.275" ry="22.276" transform="translate(130.186 106.2)"/>
            <circle id="Ellipse_589" cx="15.724" cy="15.724" r="15.724" opacity="0.077" transform="translate(111.823 47.849)"/>
            <circle id="Ellipse_591" cx="13.211" cy="13.211" r="13.211" class="cls-8" transform="translate(258.125 18.749)"/>
            <circle id="Ellipse_590" cx="15.724" cy="15.724" r="15.724" class="cls-8" transform="translate(200.881 87.759)"/>
            <ellipse id="Ellipse_588" cx="17.034" cy="3.931" opacity="0.17" rx="17.034" ry="3.931" transform="translate(130.186 153.371)"/>
            <g id="Group_8312" transform="translate(250.645 3.206)">
                <path id="Path_770" fill="#f79328" d="M17.683 0A17.683 17.683 0 1 1 0 17.683 17.683 17.683 0 0 1 17.683 0z" transform="translate(0 0)"/>
                <g id="LkW7Tg.tif" transform="translate(10.316 5.356) rotate(8)">
                    <g id="Group_820" transform="translate(4.351 0) rotate(13)">
                        <path id="Path_771" d="M4.322 19.34v-2.161c0-.207 0-.208-.2-.208H.227c-.222 0-.225 0-.225-.223v-1.621c0-.2.013-.209.21-.21.283 0 .565 0 .848-.025a.621.621 0 0 0 .64-.635c.022-.241.024-.483.024-.725V5.768c0-.226-.011-.452-.025-.678a.646.646 0 0 0-.622-.626 7.226 7.226 0 0 0-.894-.026C.047 4.442 0 4.394 0 4.261c0-.566.005-1.132 0-1.7 0-.146.058-.182.194-.181h3.905c.221 0 .221 0 .221-.221V.199c0-.155.048-.2.2-.2Q5.363.013 6.2 0c.161 0 .2.055.2.205V2.2c0 .151.048.195.194.19.293-.01.586 0 .88 0 .207 0 .208 0 .208-.2V.261c0-.249 0-.249.256-.249h1.59c.233 0 .233 0 .234.228v2.053c0 .153.055.206.2.223A4.476 4.476 0 0 1 12.5 3.588a3.005 3.005 0 0 1 .778 1.112 3.116 3.116 0 0 1-.162 2.821 3.563 3.563 0 0 1-1.588 1.46c-.2.1-.4.173-.6.289.246.08.494.155.739.239a3.543 3.543 0 0 1 1.433.879 3.294 3.294 0 0 1 .923 1.893 3.646 3.646 0 0 1-1.441 3.49 5.086 5.086 0 0 1-2.62 1.037c-.154.02-.21.069-.209.229.006.767 0 1.533 0 2.3H7.687c0-.067-.009-.133-.009-.2 0-.658-.006-1.317 0-1.975 0-.16-.05-.2-.2-.2-.262.011-.524 0-.787 0-.324 0-.29-.034-.292.286l-.008 2.092zm1.042-7.006h.006v1.219a3.635 3.635 0 0 0 .033.707.347.347 0 0 0 .37.321 15.118 15.118 0 0 0 1.634.022 5.511 5.511 0 0 0 1.344-.16 2.074 2.074 0 0 0 1.195-3.088 1.948 1.948 0 0 0-1.388-.8 7.443 7.443 0 0 0-1-.081c-.694-.033-1.388-.006-2.082-.016-.083 0-.117.029-.116.119.006.584.004 1.17.004 1.757zm.006-5.809c0 .519.005 1.039 0 1.558 0 .159.052.2.205.2.365-.009.73-.008 1.1 0a9.275 9.275 0 0 0 1.765-.125 1.68 1.68 0 0 0 1.507-1.424A1.519 1.519 0 0 0 9.007 5a4.247 4.247 0 0 0-1.425-.216c-.673-.018-1.347 0-2.021-.01-.15 0-.2.049-.193.2.006.513.002 1.032.002 1.551z" class="cls-3" transform="translate(0 0)"/>
                    </g>
                </g>
            </g>
            <g id="Group_8300" transform="translate(105.457 37.621)">
                <path id="Path_768" fill="#e8e8fa" d="M18.906 0A18.906 18.906 0 1 1 0 18.906 18.906 18.906 0 0 1 18.906 0z" transform="translate(0 0)"/>
                <g id="Logos_USD" transform="translate(12.289 7.563)">
                    <g id="Path" transform="translate(6.944 0)">
                        <path id="Mask-3" d="M0 0v15.995l6.943-4.2z" class="cls-1" transform="translate(0)"/>
                        <g id="Path-2" clip-path="url(#clip-path)" transform="translate(0)">
                            <path id="Path-3" fill="#5967ba" d="M0 7.518l6.979-4.2L.035 0z" transform="translate(-0.029 8.476)"/>
                        </g>
                    </g>
                    <g id="Path_Copy" transform="translate(6.943 15.995) rotate(180)">
                        <path id="Mask-4" d="M6.943 0v15.995L0 11.794z" class="cls-2" transform="translate(6.943 15.995) rotate(180)"/>
                        <g id="Path_Copy-2" clip-path="url(#clip-path-2)" transform="translate(0 0)">
                            <path id="Path-4" d="M6.979 7.518L0 3.313 6.944 0z" class="cls-1" transform="translate(6.95 7.519) rotate(180)"/>
                        </g>
                    </g>
                    <path id="Path-5" fill="#7680cc" d="M.086 4.191L0 4.3v5.442L.086 10 7.1 0z" transform="translate(6.792 13.246)"/>
                    <path id="Path-6" d="M6.85 10V4.191L0 0z" class="cls-2" transform="translate(0.087 13.246)"/>
                </g>
            </g>
            <path id="key" d="M37.8 2l-3.766 3.769m-14.34 14.34a10.364 10.364 0 1 1-14.658 0 10.364 10.364 0 0 1 14.658 0zm0 0l7.745-7.745m0 0l5.653 5.653 6.6-6.6-5.658-5.648m-6.6 6.6l6.6-6.6" class="cls-16" transform="translate(163.411 151.09)"/>
            <g id="Group_8309" transform="translate(67.737 14.104)">
                <rect id="Rectangle_3075" width="29.137" height="19.832" class="cls-16" rx="2" transform="translate(185.252 112.602)"/>
                <path id="Path_8044" d="M7 17.988v-7.106a8.835 8.835 0 1 1 17.67 0v7.106" class="cls-16" transform="matrix(1, -0.017, 0.017, 1, 183.813, 94.738)"/>
            </g>
            <g id="Group_8310" transform="translate(195.398 81.984)">
                <path id="Path_770-2" fill="#8dc351" d="M17.35 0A17.35 17.35 0 1 1 0 17.35 17.35 17.35 0 0 1 17.35 0z" transform="translate(0 0)"/>
                <g id="LkW7Tg.tif-2" transform="translate(4.532 16.111) rotate(-46)">
                    <g id="Group_820-2" transform="translate(4.49 0.63) rotate(13)">
                        <path id="Path_771-2" d="M3.826 17.138v-1.915c0-.183 0-.184-.18-.184H.2c-.2 0-.2 0-.2-.2v-1.436c0-.176.011-.185.186-.186.25 0 .5 0 .75-.022a.549.549 0 0 0 .566-.563c.019-.214.021-.428.021-.642V5.109c0-.2-.01-.4-.023-.6a.572.572 0 0 0-.551-.554 6.384 6.384 0 0 0-.789-.023C.041 3.935 0 3.891 0 3.774v-1.5c0-.129.051-.161.172-.161h3.456c.2 0 .2 0 .2-.2V.176C3.818.04 3.862 0 4 0q.745.01 1.489 0c.143 0 .176.049.175.182-.006.588 0 1.176 0 1.765 0 .134.043.173.172.168.259-.008.519 0 .778 0 .183 0 .184 0 .184-.178V.227C6.793 0 6.794 0 7.02 0h1.407c.206 0 .207 0 .207.2v1.819c0 .136.049.183.176.2a3.959 3.959 0 0 1 2.249.958 2.664 2.664 0 0 1 .692.987 2.765 2.765 0 0 1-.143 2.5A3.154 3.154 0 0 1 10.2 7.96c-.173.086-.354.154-.529.256.218.071.437.138.654.212a3.135 3.135 0 0 1 1.269.779 2.921 2.921 0 0 1 .817 1.678 3.233 3.233 0 0 1-1.275 3.093 4.5 4.5 0 0 1-2.318.919c-.137.018-.186.061-.185.2.006.679 0 1.359 0 2.038H6.8c0-.059-.008-.118-.008-.177 0-.583-.005-1.167 0-1.75 0-.142-.044-.18-.18-.175-.232.01-.464 0-.7 0-.286 0-.257-.03-.258.254q0 .923-.008 1.845zm.921-6.209v1.08a3.226 3.226 0 0 0 .029.627.307.307 0 0 0 .327.284 13.357 13.357 0 0 0 1.446.02 4.869 4.869 0 0 0 1.196-.14A1.839 1.839 0 0 0 8.8 10.062a1.723 1.723 0 0 0-1.228-.711 6.577 6.577 0 0 0-.883-.072c-.614-.03-1.228-.005-1.843-.014-.073 0-.1.026-.1.106.002.518.001 1.038.001 1.558zm0-5.147v1.381c0 .141.046.181.181.177.323-.008.646-.007.969 0a8.2 8.2 0 0 0 1.562-.11A1.487 1.487 0 0 0 8.8 5.966a1.347 1.347 0 0 0-.832-1.538 3.753 3.753 0 0 0-1.261-.191c-.6-.016-1.192 0-1.788-.009-.133 0-.173.044-.171.173.007.46.004.92.004 1.38z" class="cls-3" transform="translate(-0.001 -0.001)"/>
                    </g>
                </g>
            </g>
            <g id="Group_8311" transform="matrix(0.914, -0.407, 0.407, 0.914, 111.823, 111.657)">
                <circle id="Ellipse_24" cx="25.817" cy="25.817" r="25.817" transform="translate(0 0)" style="isolation:isolate" fill="#0064af"/>
                <g id="Group_907" transform="translate(15.892 19.53)">
                    <g id="Group_372" transform="translate(0 0)">
                        <path id="Path_55" d="M20.265.8A2.531 2.531 0 0 0 18.39 0L4.048.014l-1.032 3.16-.15.46h12.97L14.21 8.511H1.274l-.236.721L0 12.412h14.592a4.57 4.57 0 0 0 3.775-2.72L20.3 3.72A3.528 3.528 0 0 0 20.265.8z" class="cls-3" transform="translate(0 0)"/>
                    </g>
                    <path id="Path_56" d="M7.576 2.858H0L.975 0h7.576z" class="cls-3" transform="translate(0 4.777)"/>
                </g>
            </g>
        </g>
    </g>
</svg>
