<svg xmlns="http://www.w3.org/2000/svg" width="368" height="292" viewBox="0 0 368 292">
    <defs>
        <clipPath id="clip-path">
            <path id="Mask" d="M0 0v15.174l6.587-3.986z" class="cls-1" transform="translate(0)"/>
        </clipPath>
        <clipPath id="clip-path-2">
            <path id="Mask-2" d="M6.587 0v15.174L0 11.188z" class="cls-2" transform="translate(6.587 15.174) rotate(180)"/>
        </clipPath>
        <style>
            .cls-1{fill:#7681c7}.cls-2{fill:#9ba3d7}.cls-3{fill:#fff}.cls-5{fill:#4278de}.cls-8{opacity:.259}
        </style>
    </defs>
    <g id="img1" transform="translate(-776 -288)">
        <path id="Path_8040" d="M0 0h368v292H0z" class="cls-3" transform="translate(776 288)"/>
        <g id="Component_187_1" transform="translate(815 318)">
            <g id="Group_8304" transform="translate(0 -0.001)">
                <g id="Group_8306" opacity="0.49">
                    <path id="Path_8031" d="M792.514 654.214q-30.654.421-61.312.836a4.371 4.371 0 0 1 0-8.7q30.657.421 61.312.836a3.535 3.535 0 1 1 0 7.026z" class="cls-5" transform="translate(-726.184 -566.432)"/>
                    <path id="Path_8032" d="M793.187 720.367q-27.973 4.175-55.95 8.347c-5.724.891-10.38-3.632-10.38-10.079v-74.558c0-6.447 4.657-10.97 10.38-10.079l55.95 8.347a4.484 4.484 0 0 1 3.931 4.044c0 1.905-1.761 3.239-3.931 2.98l-55.95-6.843a2.288 2.288 0 0 0-2.518 2.445v72.77a2.287 2.287 0 0 0 2.518 2.445q27.977-3.42 55.95-6.843c2.17-.259 3.931 1.075 3.931 2.98a4.484 4.484 0 0 1-3.931 4.044z" class="cls-5" transform="translate(-726.856 -586.635)"/>
                    <path id="Path_8033" d="M783.4 677.5q-22.851 3.554-45.7 8.742a3.833 3.833 0 0 1-4.549-3.42 4.378 4.378 0 0 1 3.2-5.092q22.85-4.422 45.7-7.207a4.084 4.084 0 0 1 4.549 2.977 3.531 3.531 0 0 1-3.2 4z" class="cls-5" transform="translate(-716.741 -527.313)"/>
                    <path id="Path_8034" d="M775.164 683.55q-16.022 3.494-32.04 8.5a3.733 3.733 0 0 1-4.749-3.014 4.45 4.45 0 0 1 2.888-5.317q16.018-4.308 32.04-7.112a4.2 4.2 0 0 1 4.749 2.765 3.468 3.468 0 0 1-2.888 4.178z" class="cls-5" transform="translate(-708.369 -517.504)"/>
                    <path id="Path_8038" d="M869.7 833.4q-40.626 7.477-81.25 14.951c-16.625 3.221-30.148-9.439-30.148-28.216V644.576c0-18.78 13.522-31.44 30.148-28.219l81.25 14.951c16.625 3.218 30.148 17.608 30.148 32.077v10.339q-7.862-.885-15.724-1.774V661.3c0-7.176-6.47-14.06-14.424-15.347q-40.626-6.392-81.25-12.786c-7.954-1.287-14.424 4.767-14.424 13.5V818.04c0 8.735 6.47 14.791 14.424 13.5l81.25-12.784c7.954-1.287 14.424-8.174 14.424-15.349v-14.685l15.724-1.659v14.257c.001 14.471-13.518 28.859-30.148 32.08z" class="cls-5" transform="translate(-675.886 -615.855)"/>
                </g>
                <ellipse id="Ellipse_587" cx="22.275" cy="22.276" opacity="0.132" rx="22.275" ry="22.276" transform="translate(139.704 111.254)"/>
                <circle id="Ellipse_589" cx="15.724" cy="15.724" r="15.724" opacity="0.077" transform="translate(210.46 87.668)"/>
                <circle id="Ellipse_591" cx="13.211" cy="13.211" r="13.211" class="cls-8" transform="translate(258.125 18.751)"/>
                <circle id="Ellipse_590" cx="15.724" cy="15.724" r="15.724" class="cls-8" transform="translate(236.881 132.435)"/>
                <ellipse id="Ellipse_588" cx="17.034" cy="3.931" opacity="0.17" rx="17.034" ry="3.931" transform="translate(139.704 158.426)"/>
                <g id="Group_8298" transform="translate(129.22 103.391)">
                    <path id="Path_770" fill="#8dc351" d="M26.206 0A26.207 26.207 0 1 1 0 26.207 26.206 26.206 0 0 1 26.206 0z" transform="translate(0 0)"/>
                    <g id="LkW7Tg.tif" transform="translate(6.941 24.333) rotate(-46)">
                        <g id="Group_820" transform="translate(5.929 0) rotate(13)">
                            <path id="Path_771" d="M5.89 26.356v-2.945c0-.282 0-.283-.277-.283H.31c-.3 0-.306 0-.307-.3v-2.209c0-.271.017-.285.286-.286.385 0 .77 0 1.155-.034a.846.846 0 0 0 .872-.866c.03-.329.032-.658.032-.987V7.865c0-.308-.015-.616-.035-.924a.881.881 0 0 0-.848-.852A9.847 9.847 0 0 0 .247 6.05C.064 6.054 0 5.988 0 5.807c.006-.771.007-1.543 0-2.314 0-.2.079-.248.264-.247 1.774.005 3.548 0 5.322 0 .3 0 .3 0 .3-.3 0-.89.005-1.781 0-2.671C5.883.064 5.95 0 6.163 0q1.146.017 2.293 0c.22 0 .272.075.27.28-.009.9 0 1.809-.008 2.713 0 .206.066.266.265.259.4-.013.8 0 1.2 0 .282 0 .283 0 .283-.274V.349c0-.34 0-.34.349-.34h2.165c.317 0 .318 0 .318.31 0 .933.006 1.865 0 2.8 0 .209.075.281.272.3a6.1 6.1 0 0 1 3.463 1.473 4.1 4.1 0 0 1 1.066 1.518 4.246 4.246 0 0 1-.221 3.845 4.856 4.856 0 0 1-2.164 1.989c-.266.133-.546.236-.815.394.336.108.673.212 1.007.326a4.828 4.828 0 0 1 1.953 1.2 4.488 4.488 0 0 1 1.258 2.58 4.969 4.969 0 0 1-1.968 4.756 6.931 6.931 0 0 1-3.57 1.414c-.211.027-.287.094-.285.312.009 1.045 0 2.089 0 3.134h-2.818c0-.091-.012-.182-.012-.273 0-.9-.008-1.794 0-2.692 0-.219-.068-.277-.277-.269-.357.015-.715 0-1.072 0-.441 0-.4-.047-.4.39l-.012 2.838zm1.42-9.548h.007c0 .554-.007 1.108 0 1.661a4.953 4.953 0 0 0 .044.964.473.473 0 0 0 .5.437 20.6 20.6 0 0 0 2.227.03 7.51 7.51 0 0 0 1.831-.218 2.827 2.827 0 0 0 1.628-4.209 2.654 2.654 0 0 0-1.892-1.093 10.143 10.143 0 0 0-1.36-.111c-.946-.046-1.892-.008-2.838-.022-.113 0-.159.04-.159.163.014.8.012 1.599.012 2.398zm.008-7.916c0 .708.007 1.416 0 2.123 0 .216.071.278.279.273.5-.013 1-.011 1.493 0a12.641 12.641 0 0 0 2.406-.17 2.289 2.289 0 0 0 2.064-1.94 2.07 2.07 0 0 0-1.281-2.365 5.787 5.787 0 0 0-1.942-.294c-.917-.024-1.836 0-2.754-.014-.2 0-.266.067-.263.266.004.706-.001 1.414-.002 2.122z" class="cls-3" transform="translate(0 0)"/>
                        </g>
                    </g>
                </g>
                <g id="Group_8299" transform="translate(202.597 72.793)">
                    <path id="Path_770-2" fill="#f79328" d="M19.23 0A19.23 19.23 0 1 1 0 19.23 19.23 19.23 0 0 1 19.23 0z" transform="translate(0 0)"/>
                    <g id="LkW7Tg.tif-2" transform="translate(11.871 6.854) rotate(8)">
                        <g id="Group_820-2" transform="translate(4.351 0) rotate(13)">
                            <path id="Path_771-2" d="M4.322 19.34v-2.161c0-.207 0-.208-.2-.208H.227c-.222 0-.225 0-.225-.223v-1.621c0-.2.013-.209.21-.21.283 0 .565 0 .848-.025a.621.621 0 0 0 .64-.635c.022-.241.024-.483.024-.725V5.768c0-.226-.011-.452-.025-.678a.646.646 0 0 0-.622-.626 7.226 7.226 0 0 0-.894-.026C.047 4.442 0 4.394 0 4.261c0-.566.005-1.132 0-1.7 0-.146.058-.182.194-.181h3.905c.221 0 .221 0 .221-.221V.199c0-.155.048-.2.2-.2Q5.363.013 6.2 0c.161 0 .2.055.2.205V2.2c0 .151.048.195.194.19.293-.01.586 0 .88 0 .207 0 .208 0 .208-.2V.261c0-.249 0-.249.256-.249h1.59c.233 0 .233 0 .234.228v2.053c0 .153.055.206.2.223A4.476 4.476 0 0 1 12.5 3.588a3.005 3.005 0 0 1 .778 1.112 3.116 3.116 0 0 1-.162 2.821 3.563 3.563 0 0 1-1.588 1.46c-.2.1-.4.173-.6.289.246.08.494.155.739.239a3.543 3.543 0 0 1 1.433.879 3.294 3.294 0 0 1 .923 1.893 3.646 3.646 0 0 1-1.441 3.49 5.086 5.086 0 0 1-2.62 1.037c-.154.02-.21.069-.209.229.006.767 0 1.533 0 2.3H7.687c0-.067-.009-.133-.009-.2 0-.658-.006-1.317 0-1.975 0-.16-.05-.2-.2-.2-.262.011-.524 0-.787 0-.324 0-.29-.034-.292.286l-.008 2.092zm1.042-7.006h.006v1.219a3.635 3.635 0 0 0 .033.707.347.347 0 0 0 .37.321 15.118 15.118 0 0 0 1.634.022 5.511 5.511 0 0 0 1.344-.16 2.074 2.074 0 0 0 1.195-3.088 1.948 1.948 0 0 0-1.388-.8 7.443 7.443 0 0 0-1-.081c-.694-.033-1.388-.006-2.082-.016-.083 0-.117.029-.116.119.006.584.004 1.171.004 1.757zm.006-5.809c0 .519.005 1.039 0 1.558 0 .159.052.2.205.2.365-.009.73-.008 1.1 0a9.275 9.275 0 0 0 1.765-.125 1.68 1.68 0 0 0 1.507-1.424A1.519 1.519 0 0 0 9.007 5a4.247 4.247 0 0 0-1.425-.216c-.673-.018-1.347 0-2.021-.01-.15 0-.2.049-.193.2.006.513.002 1.032.002 1.551z" class="cls-3" transform="translate(0 0)"/>
                        </g>
                    </g>
                </g>
                <g id="Group_8297" transform="matrix(0.914, -0.407, 0.407, 0.914, 226.184, 135.594)">
                    <circle id="Ellipse_24" cx="17.034" cy="17.034" r="17.034" transform="translate(0 0)" style="isolation:isolate" fill="#0064af"/>
                    <g id="Group_907" transform="translate(6.899 10.783)">
                        <g id="Group_372" transform="translate(0 0)">
                            <path id="Path_55" d="M20.265.8A2.531 2.531 0 0 0 18.39 0L4.048.014l-1.032 3.16-.15.46h12.97L14.21 8.511H1.274l-.236.721L0 12.412h14.592a4.57 4.57 0 0 0 3.775-2.72L20.3 3.72A3.528 3.528 0 0 0 20.265.8z" class="cls-3" transform="translate(0)"/>
                        </g>
                        <path id="Path_56" d="M7.576 2.858H0L.975 0h7.576z" class="cls-3" transform="translate(0 4.777)"/>
                    </g>
                </g>
                <g id="Group_8300" transform="translate(248.674 3.208)">
                    <path id="Path_768" fill="#e8e8fa" d="M17.936 0A17.936 17.936 0 1 1 0 17.936 17.936 17.936 0 0 1 17.936 0z" transform="translate(0 0)"/>
                    <g id="Logos_USD" transform="translate(11.658 7.174)">
                        <g id="Path" transform="translate(6.588 0)">
                            <path id="Mask-3" d="M0 0v15.174l6.587-3.986z" class="cls-1" transform="translate(0)"/>
                            <g id="Path-2" clip-path="url(#clip-path)" transform="translate(0)">
                                <path id="Path-3" fill="#5967ba" d="M0 7.132l6.621-3.989L.034 0z" transform="translate(-0.028 8.041)"/>
                            </g>
                        </g>
                        <g id="Path_Copy" transform="translate(6.587 15.174) rotate(180)">
                            <path id="Mask-4" d="M6.587 0v15.174L0 11.188z" class="cls-2" transform="translate(6.587 15.174) rotate(180)"/>
                            <g id="Path_Copy-2" clip-path="url(#clip-path-2)" transform="translate(0 0)">
                                <path id="Path-4" d="M6.621 7.132L0 3.143 6.588 0z" class="cls-1" transform="translate(6.593 7.133) rotate(180)"/>
                            </g>
                        </g>
                        <path id="Path-5" fill="#7680cc" d="M.082 3.976L0 4.077v5.165l.082.242L6.731 0z" transform="translate(6.444 12.566)"/>
                        <path id="Path-6" d="M6.5 9.484V3.976L0 0z" class="cls-2" transform="translate(0.083 12.566)"/>
                    </g>
                </g>
            </g>
            <g id="Icons_32x32_Black_shield_black" transform="translate(272.638 59.57)">
                <g id="Group_8305" transform="translate(0 -0.268)">
                    <path id="Path_8042" fill="#8b8787" d="M-8106.076-20065.273s.006 20.156 2.829 24.395 12.818 10.781 12.818 10.781 12.719-9.383 14.56-12.516 1.884-22.66 1.884-22.66l-15.838-4.867z" opacity="0.353" transform="translate(8109.869 20076.725)"/>
                    <path id="Path_8043" d="M-8106.076-20065.273s.006 20.156 2.829 24.395 12.818 10.781 12.818 10.781 12.719-9.383 14.56-12.516 1.884-22.66 1.884-22.66l-15.838-4.867z" class="cls-3" transform="translate(8106.076 20070.141)"/>
                </g>
                <g id="shield_2" transform="translate(0 0)">
                    <g id="shield" fill="none" stroke-linecap="round" stroke-linejoin="round" stroke-miterlimit="10" stroke-width="4px">
                        <path id="Shape" stroke="#014ba2" d="M15.8 39.512s15.8-7.9 15.8-19.756V3.951L15.8 0 0 3.951v15.8C0 31.61 15.8 39.512 15.8 39.512z"/>
                        <path id="Path-7" stroke="#59b54a" d="M0 4.409l5.632 5.469L15.8 0" transform="translate(9.112 13.829)"/>
                    </g>
                </g>
            </g>
        </g>
    </g>
</svg>
