<svg xmlns="http://www.w3.org/2000/svg" width="174" height="48" viewBox="0 0 174 48">
    <defs>
        <style>
            .cls-2{fill:#fff}
        </style>
    </defs>
    <g id="logo" transform="translate(9631 10684)">
        <g id="Group_1040" transform="translate(-9689.999 -11235.315)">
            <g id="Group_1040-2" transform="translate(95.878 587.674)">
                <circle id="Ellipse_506" cx="1.615" cy="1.615" r="1.615" class="cls-2"/>
            </g>
            <g id="Group_1041" transform="translate(65.248 569.404)">
                <path id="Path_877" d="M79.727 585.706l-13.4.03a.859.859 0 0 1 0-1.719l13.4-.03a.859.859 0 1 1 0 1.719z" class="cls-2" transform="translate(-65.461 -583.988)"/>
            </g>
            <g id="Group_1042" transform="translate(64.999 563.003)">
                <path id="Path_878" d="M79.539 591.216l-12.233.027a2.271 2.271 0 0 1-2.274-2.264L65 574.425a2.272 2.272 0 0 1 2.265-2.274l12.233-.028a.86.86 0 0 1 0 1.719l-12.233.027a.552.552 0 0 0-.549.552l.032 14.554a.552.552 0 0 0 .552.549l12.233-.028a.86.86 0 0 1 0 1.719z" class="cls-2" transform="translate(-64.999 -572.123)"/>
            </g>
            <g id="Group_1046" transform="translate(90.697 563.166)">
                <g id="Group_1043">
                    <path id="Path_879" d="M119.572 591.359a.7.7 0 0 1-.285-1.33 9.552 9.552 0 0 0 5.455-8.8v-2.052a5.362 5.362 0 0 0-10.725 0v1.909a.695.695 0 1 1-1.389 0v-1.909a6.752 6.752 0 1 1 13.5 0v2.052a10.943 10.943 0 0 1-6.275 10.068.694.694 0 0 1-.281.062z" class="cls-2" transform="translate(-112.627 -572.425)"/>
                </g>
                <g id="Group_1044" transform="translate(.04 5.682)">
                    <path id="Path_880" d="M113.4 592.308a.695.695 0 1 1 0-1.39 5.368 5.368 0 0 0 5.362-5.363v-1.905a.695.695 0 1 1 1.39 0v1.906a6.76 6.76 0 0 1-6.752 6.752z" class="cls-2" transform="translate(-112.702 -582.955)"/>
                </g>
                <g id="Group_1045" transform="translate(.021 2.945)">
                    <path id="Path_881" d="M113.36 592.777a.695.695 0 0 1-.052-1.388 10.282 10.282 0 0 0 4.454-1.083c.211-.133.419-.276.619-.426a8.552 8.552 0 0 0 3.267-6.869v-1.4a2.333 2.333 0 1 0-4.667 0l.023 1.547a3.358 3.358 0 0 1-1.467 2.969 4.291 4.291 0 0 1-2.09.732.695.695 0 0 1-.134-1.383 2.918 2.918 0 0 0 1.422-.485 1.974 1.974 0 0 0 .878-1.815l-.023-1.556a3.723 3.723 0 1 1 7.446-.01v1.4a9.944 9.944 0 0 1-3.824 7.981c-.229.172-.468.336-.71.489a11.36 11.36 0 0 1-5.09 1.293z" class="cls-2" transform="translate(-112.665 -577.884)"/>
                </g>
            </g>
            <g id="Group_1056" transform="translate(108.497 562.011)">
                <g id="Group_1047" transform="translate(0 .826)">
                    <path id="Path_882" d="M145.617 572.741a.926.926 0 0 1 .926-.926h6.257a6.468 6.468 0 0 1 4.678 1.871 6.51 6.51 0 0 1 0 9.191 6.463 6.463 0 0 1-4.678 1.871h-3.385v4.431a1.9 1.9 0 0 1-1.9 1.9 1.9 1.9 0 0 1-1.9-1.9zm3.8 8.458h3.383a2.654 2.654 0 0 0 2.008-.84 3.119 3.119 0 0 0 0-4.169 2.674 2.674 0 0 0-2.008-.826h-3.385z" class="cls-2" transform="translate(-145.617 -571.815)"/>
                </g>
                <g id="Group_1048" transform="translate(14.446 5.944)">
                    <path id="Path_883" d="M183.564 583.31a1.623 1.623 0 0 1 1.623-1.623h.3a1.623 1.623 0 0 1 1.624 1.623v10.512a1.624 1.624 0 0 1-1.624 1.624h-.3a1.624 1.624 0 0 1-1.623-1.624 5.4 5.4 0 0 1-4.485 2.008 6.3 6.3 0 0 1-4.733-2.091 7.788 7.788 0 0 1 0-10.319 6.26 6.26 0 0 1 4.733-2.118 5.4 5.4 0 0 1 4.485 2.008zm-6.24 7.746a3.543 3.543 0 0 0 4.833 0 3.372 3.372 0 0 0 .976-2.49 3.293 3.293 0 0 0-.976-2.466 3.479 3.479 0 0 0-4.833 0 3.338 3.338 0 0 0-.952 2.466 3.418 3.418 0 0 0 .952 2.49z" class="cls-2" transform="translate(-172.391 -581.302)"/>
                </g>
                <g id="Group_1049" transform="translate(32.388 .826)">
                    <path id="Path_884" d="M207.418 591.078a1.775 1.775 0 0 1-1.775-1.775V573.59a1.775 1.775 0 0 1 1.775-1.775 1.775 1.775 0 0 1 1.775 1.775v15.71a1.775 1.775 0 0 1-1.775 1.778z" class="cls-2" transform="translate(-205.643 -571.815)"/>
                </g>
                <g id="Group_1050" transform="translate(45.581 6.33)">
                    <path id="Path_885" d="M244.062 593.436l3.2-10.783a.889.889 0 0 1 .854-.637.891.891 0 0 1 .851 1.152l-3.59 11.654a1.35 1.35 0 0 1-1.29.952 1.349 1.349 0 0 1-1.285-.938l-3.25-10.151-3.25 10.151a1.349 1.349 0 0 1-1.285.938 1.349 1.349 0 0 1-1.29-.952l-3.589-11.654a.89.89 0 0 1 .851-1.152.891.891 0 0 1 .854.637l3.2 10.783 3.331-10.554a1.238 1.238 0 0 1 1.182-.866 1.238 1.238 0 0 1 1.181.866z" class="cls-2" transform="translate(-230.096 -582.016)"/>
                </g>
                <g id="Group_1051" transform="translate(66.179 5.999)">
                    <path id="Path_886" d="M280.929 584.43v-1.789a.908.908 0 0 1 .908-.908.908.908 0 0 1 .909.908v11.942a.909.909 0 0 1-.909.909.908.908 0 0 1-.908-.909V592.8a6.158 6.158 0 0 1-5.558 3.027 6.863 6.863 0 0 1-5.036-2.091 7.378 7.378 0 0 1 0-10.237 6.865 6.865 0 0 1 5.036-2.091 6.158 6.158 0 0 1 5.558 3.022zm-9.273 8.063a5.516 5.516 0 0 0 7.7 0 5.387 5.387 0 0 0 1.568-3.88 5.421 5.421 0 1 0-10.841 0 5.387 5.387 0 0 0 1.573 3.88z" class="cls-2" transform="translate(-268.271 -581.403)"/>
                </g>
                <g id="Group_1052" transform="translate(84.506)">
                    <path id="Path_887" d="M303.145 590.373a.908.908 0 0 1-.908-.908v-18.272a.908.908 0 0 1 .908-.908.908.908 0 0 1 .908.908v18.272a.908.908 0 0 1-.908.908z" class="cls-2" transform="translate(-302.237 -570.285)"/>
                </g>
                <g id="Group_1053" transform="translate(90.174)">
                    <path id="Path_888" d="M313.65 590.373a.908.908 0 0 1-.908-.908v-18.272a.908.908 0 0 1 .908-.908.908.908 0 0 1 .908.908v18.272a.908.908 0 0 1-.908.908z" class="cls-2" transform="translate(-312.742 -570.285)"/>
                </g>
                <g id="Group_1054" transform="translate(95.017 5.999)">
                    <path id="Path_889" d="M328.9 581.4a6.133 6.133 0 0 1 4.926 2.174 7.428 7.428 0 0 1 1.9 5.09.866.866 0 0 1-.871.85h-11.266a4.983 4.983 0 0 0 1.762 3.3 5.6 5.6 0 0 0 3.715 1.238 4.8 4.8 0 0 0 3.983-1.667.915.915 0 0 1 1.18-.242.911.911 0 0 1 .212 1.391 6.441 6.441 0 0 1-1.839 1.44 7.5 7.5 0 0 1-3.564.839 7.145 7.145 0 0 1-5.283-2.037 7.593 7.593 0 0 1-.028-10.319 6.9 6.9 0 0 1 5.173-2.057zm0 1.762a5.253 5.253 0 0 0-3.591 1.266 5.17 5.17 0 0 0-1.72 3.329h10.265a5.212 5.212 0 0 0-1.679-3.384 4.927 4.927 0 0 0-3.275-1.208z" class="cls-2" transform="translate(-321.718 -581.403)"/>
                </g>
                <g id="Group_1055" transform="translate(110.124 2.792)">
                    <path id="Path_890" d="M358.385 579.877a.88.88 0 0 1-.881.88h-3.082v8.343a2.362 2.362 0 0 0 .44 1.61 1.74 1.74 0 0 0 1.321.5q.577.009 1.343-.011a.834.834 0 0 1 .858.83.839.839 0 0 1-.76.83 5.872 5.872 0 0 1-3.6-.52 3.481 3.481 0 0 1-1.417-3.234v-8.338H350.6a.88.88 0 0 1-.881-.88.88.88 0 0 1 .881-.88h2.009v-2.629a.909.909 0 0 1 .645-.869.908.908 0 0 1 1.171.869V579h3.075a.88.88 0 0 1 .885.877z" class="cls-2" transform="translate(-349.717 -575.46)"/>
                </g>
            </g>
            <path id="Path_891" d="M125.557 584.934a1.835 1.835 0 0 0-1.835 1.835v4.241a2.754 2.754 0 0 1-2.753 2.753H104.24a2.754 2.754 0 0 1-2.754-2.754v-32.271a2.754 2.754 0 0 1 2.754-2.754h16.728a2.7 2.7 0 0 1 2.729 2.47 1.463 1.463 0 0 0 .188.413 1.982 1.982 0 0 0 3.234 0 1.445 1.445 0 0 0 .236-.743c-.013-.134-.026-.267-.046-.4a6.422 6.422 0 0 0-6.34-5.41h-16.73a6.423 6.423 0 0 0-6.422 6.423v32.273a6.423 6.423 0 0 0 6.423 6.423h16.728a6.423 6.423 0 0 0 6.423-6.423v-4.241a1.834 1.834 0 0 0-1.834-1.835z" class="cls-2" transform="translate(-15.111)"/>
        </g>
    </g>
</svg>
